<svg width="23" height="18" viewBox="0 0 23 18" fill="none" xmlns="http://www.w3.org/2000/svg">
<path d="M22.4375 5.8125C22.4375 12.375 12.3018 17.6869 11.8701 17.9062C11.7563 17.965 11.6292 17.9958 11.5 17.9958C11.3708 17.9958 11.2436 17.965 11.1299 17.9062C10.6982 17.6869 0.5625 12.375 0.5625 5.8125C0.564309 4.27146 1.20279 2.79404 2.33788 1.70436C3.47296 0.614681 5.01194 0.00173694 6.61719 0C8.63379 0 10.3994 0.8325 11.5 2.23969C12.6006 0.8325 14.3662 0 16.3828 0C17.9881 0.00173694 19.527 0.614681 20.6621 1.70436C21.7972 2.79404 22.4357 4.27146 22.4375 5.8125Z" fill="#F15C3B"/>
</svg>
